<svg width="43" height="31" viewBox="0 0 43 31" fill="none" xmlns="http://www.w3.org/2000/svg">
<path d="M28.5313 15.5C26.7242 15.5 24.977 14.6932 23.6094 13.2289C22.2796 11.8007 21.4675 9.89609 21.3242 7.86758C21.1713 5.70371 21.8314 3.71387 23.1823 2.26367C24.5331 0.813477 26.4219 0.03125 28.5313 0.03125C30.6257 0.03125 32.5198 0.827539 33.8662 2.27422C35.2259 3.73496 35.8877 5.72129 35.7348 7.8667C35.588 9.89785 34.7768 11.8016 33.4496 13.228C32.0856 14.6932 30.3392 15.5 28.5313 15.5ZM40.1179 30.9688H16.9455C16.573 30.9707 16.2049 30.8872 15.8697 30.7247C15.5345 30.5621 15.241 30.3248 15.0119 30.031C14.7689 29.7125 14.6011 29.3431 14.521 28.9506C14.441 28.558 14.4508 28.1525 14.5496 27.7643C15.2897 24.7927 17.1231 22.3282 19.8512 20.6381C22.2726 19.1387 25.3549 18.3125 28.5313 18.3125C31.77 18.3125 34.7715 19.1035 37.207 20.602C39.9412 22.2834 41.7773 24.7619 42.5138 27.7695C42.6115 28.158 42.6202 28.5636 42.5392 28.9559C42.4582 29.3483 42.2897 29.7172 42.0462 30.0354C41.8174 30.3278 41.5246 30.5639 41.1903 30.7257C40.8561 30.8875 40.4892 30.9707 40.1179 30.9688ZM11.9199 15.8516C8.82707 15.8516 6.10774 12.9758 5.85549 9.4417C5.73069 7.63115 6.29494 5.95684 7.43752 4.729C8.5678 3.51348 10.1621 2.84375 11.9199 2.84375C13.6778 2.84375 15.2598 3.51699 16.3962 4.73955C17.5476 5.97705 18.1101 7.64785 17.9782 9.44346C17.726 12.9767 15.0075 15.8516 11.9199 15.8516ZM17.6908 18.6157C16.1448 17.8599 14.1383 17.4819 11.9208 17.4819C9.33156 17.4819 6.81702 18.1569 4.83948 19.3821C2.59739 20.7734 1.08918 22.7993 0.4801 25.2453C0.390966 25.5971 0.382536 25.9646 0.455439 26.3201C0.528343 26.6756 0.680694 27.0101 0.901096 27.2984C1.11023 27.5669 1.37815 27.7838 1.68426 27.9326C1.99037 28.0813 2.3265 28.1578 2.66682 28.1562H12.4227C12.5873 28.1562 12.7468 28.0984 12.8732 27.9929C12.9996 27.8874 13.0849 27.7408 13.1144 27.5788C13.124 27.5234 13.1364 27.4681 13.1504 27.4136C13.8957 24.42 15.6421 21.8905 18.2226 20.0466C18.3175 19.9782 18.3938 19.8872 18.4447 19.7818C18.4955 19.6764 18.5193 19.56 18.5138 19.4431C18.5083 19.3263 18.4737 19.2126 18.4132 19.1125C18.3527 19.0124 18.2681 18.9289 18.1672 18.8697C18.0292 18.7889 17.871 18.7036 17.6908 18.6157Z" fill="black"/>
</svg>
